{"title":"Outland(1981)MP-4[DaScubaDude]","uid":12514676,"size":1338794696,"categoryP":"video","categoryS":"movies","magnet":"?xt=urn:btih:782ed27af129939777390732e5d03a85b7cc14e3&amp;dn=Outland%281981%29MP-4%5BDaScubaDude%5D&amp;tr=udp%3A%2F%2Ftracker.leechers-paradise.org%3A6969&amp;tr=udp%3A%2F%2Fzer0day.ch%3A1337&amp;tr=udp%3A%2F%2Fopen.demonii.com%3A1337&amp;tr=udp%3A%2F%2Ftracker.coppersurfer.tk%3A6969&amp;tr=udp%3A%2F%2Fexodus.desync.com%3A6969","seeders":0,"leechers":0,"uploader":"dascuba","files":1,"time":1443651194,"description":"Outland (1981)\r\nR  |  112 min  |  Action, Crime, Sci-Fi  |  22 May 1981 (USA)\r\n6.6 Your rating:   -/10   Ratings: 6.6/10 from 20,264 users   \r\nReviews: 128 user | 68 critic\r\nIn the distant future, a police marshal stationed at a remote mining colony on the Jupiter moon of Io uncovers a drug-smuggling conspiracy, and gets no help from the populace when he later finds himself marked for murder.\r\n\r\nDirector: Peter Hyams\r\nWriter: Peter Hyams\r\nStars: Sean Connery, Frances Sternhagen, Peter Boyle\r\n\r\nGeneral\r\nComplete name                            : C:OutlandOut_Title1.mp4\r\nFormat                                   : MPEG-4\r\nFormat profile                           : Base Media\r\nCodec ID                                 : isom\r\nFile size                                : 1.25 GiB\r\nDuration                                 : 1h 49mn\r\nOverall bit rate mode                    : Constant\r\nOverall bit rate                         : 1 634 Kbps\r\nMovie name                               : DVD\r\nGenre                                    : Science_Fiction\r\nWriting application                      : Lavf54.6.100\r\n\r\nVideo\r\nID                                       : 1\r\nFormat                                   : MPEG-4 Visual\r\nFormat settings, BVOP                    : No\r\nFormat settings, QPel                    : No\r\nFormat settings, GMC                     : No warppoints\r\nFormat settings, Matrix                  : Default (H.263)\r\nCodec ID                                 : 20\r\nDuration                                 : 1h 49mn\r\nSource duration                          : 1h 49mn\r\nBit rate mode                            : Constant\r\nBit rate                                 : 1 500 Kbps\r\nWidth                                    : 720 pixels\r\nHeight                                   : 540 pixels\r\nDisplay aspect ratio                     : 4:3\r\nFrame rate mode                          : Constant\r\nFrame rate                               : 29.970 fps\r\nColor space                              : YUV\r\nChroma subsampling                       : 4:2:0\r\nBit depth                                : 8 bits\r\nScan type                                : Progressive\r\nCompression mode                         : Lossy\r\nBits/(Pixel*Frame)                       : 0.129\r\nStream size                              : 1.14 GiB (92%)\r\nSource stream size                       : 1.14 GiB (92%)\r\nWriting library                          : Lavc54.23.100\r\n\r\nAudio\r\nID                                       : 2\r\nFormat                                   : MPEG Audio\r\nFormat version                           : Version 1\r\nFormat profile                           : Layer 3\r\nCodec ID                                 : 6B\r\nDuration                                 : 1h 49mn\r\nBit rate mode                            : Constant\r\nBit rate                                 : 128 Kbps\r\nChannel(s)                               : 2 channels\r\nSampling rate                            : 44.1 KHz\r\nCompression mode                         : Lossy\r\nStream size                              : 100 MiB (8%)","torrent":{"xt":"urn:btih:782ed27af129939777390732e5d03a85b7cc14e3","amp;dn":"Outland%281981%29MP-4%5BDaScubaDude%5D","amp;tr":["udp%3A%2F%2Ftracker.leechers-paradise.org%3A6969","udp%3A%2F%2Fzer0day.ch%3A1337","udp%3A%2F%2Fopen.demonii.com%3A1337","udp%3A%2F%2Ftracker.coppersurfer.tk%3A6969","udp%3A%2F%2Fexodus.desync.com%3A6969"],"infoHash":"782ed27af129939777390732e5d03a85b7cc14e3","infoHashBuffer":{"type":"Buffer","data":[120,46,210,122,241,41,147,151,119,57,7,50,229,208,58,133,183,204,20,227]},"announce":[],"urlList":[]}}